<svg t="1688631991293" class="icon" viewBox="0 0 1024 1024" version="1.1" xmlns="http://www.w3.org/2000/svg" p-id="2841" width="200" height="200"><path d="M774.095238 652.190476m-201.142857 0a201.142857 201.142857 0 1 0 402.285714 0 201.142857 201.142857 0 1 0-402.285714 0Z" fill="#4C91FF" p-id="2842"></path><path d="M512 1024C228.571429 1024 0 795.428571 0 512S228.571429 0 512 0s512 228.571429 512 512-228.571429 512-512 512z m0-963.047619C262.095238 60.952381 60.952381 262.095238 60.952381 512s201.142857 451.047619 451.047619 451.047619S963.047619 761.904762 963.047619 512 761.904762 60.952381 512 60.952381z" fill="#231815" p-id="2843"></path><path d="M496.761905 231.619048h-18.285715c-18.285714 0-30.47619-12.190476-30.47619-30.476191V182.857143c0-18.285714 12.190476-30.47619 30.47619-30.476191h18.285715c18.285714 0 30.47619 12.190476 30.47619 30.476191v18.285714c0 18.285714-12.190476 30.47619-30.47619 30.476191z" fill="#4C91FF" p-id="2844"></path><path d="M783.238095 545.52381h-292.571428c-18.285714 0-30.47619-12.190476-30.476191-30.476191V292.571429c0-18.285714 12.190476-30.47619 30.476191-30.476191s30.47619 12.190476 30.47619 30.476191v161.523809c0 18.285714 12.190476 30.47619 30.476191 30.476191h231.619047c18.285714 0 30.47619 12.190476 30.476191 30.47619 0 15.238095-15.238095 30.47619-30.476191 30.476191z" fill="#231815" p-id="2845"></path></svg>
